<svg width="20" height="20" viewBox="0 0 20 20" fill="none" xmlns="http://www.w3.org/2000/svg">
<path d="M14.1667 4.99935H18.3334V6.66602H16.6667V17.4993C16.6667 17.7204 16.5789 17.9323 16.4226 18.0886C16.2663 18.2449 16.0544 18.3327 15.8334 18.3327H4.16669C3.94567 18.3327 3.73371 18.2449 3.57743 18.0886C3.42115 17.9323 3.33335 17.7204 3.33335 17.4993V6.66602H1.66669V4.99935H5.83335V2.49935C5.83335 2.27834 5.92115 2.06637 6.07743 1.91009C6.23371 1.75381 6.44567 1.66602 6.66669 1.66602H13.3334C13.5544 1.66602 13.7663 1.75381 13.9226 1.91009C14.0789 2.06637 14.1667 2.27834 14.1667 2.49935V4.99935ZM15 6.66602H5.00002V16.666H15V6.66602ZM7.50002 9.16602H9.16669V14.166H7.50002V9.16602ZM10.8334 9.16602H12.5V14.166H10.8334V9.16602ZM7.50002 3.33268V4.99935H12.5V3.33268H7.50002Z" fill="#F10000"/>
</svg>
