<svg width="18" height="21" viewBox="0 0 18 21" fill="none" xmlns="http://www.w3.org/2000/svg">
<path d="M13.5327 7.12926C13.3788 6.63068 13.1664 6.18442 12.8956 5.79048C12.6309 5.39039 12.3108 5.04877 11.9354 4.76562C11.5661 4.48248 11.1413 4.27012 10.6612 4.12855C10.1811 3.98082 9.65791 3.90696 9.09162 3.90696C8.07599 3.90696 7.17117 4.16241 6.37713 4.6733C5.5831 5.18418 4.95833 5.93513 4.50284 6.92614C4.0535 7.91098 3.82884 9.11127 3.82884 10.527C3.82884 11.955 4.0535 13.1645 4.50284 14.1555C4.95218 15.1465 5.57694 15.9006 6.37713 16.4176C7.17732 16.9285 8.10677 17.1839 9.16548 17.1839C10.1257 17.1839 10.9567 16.9993 11.6584 16.63C12.3662 16.2607 12.911 15.7375 13.2926 15.0604C13.6742 14.3771 13.8651 13.5769 13.8651 12.6598L14.6406 12.7798H9.5071V10.1023H17.1797V12.3736C17.1797 13.9924 16.835 15.3928 16.1456 16.5746C15.4562 17.7564 14.5083 18.6674 13.3018 19.3075C12.0954 19.9415 10.7105 20.2585 9.14702 20.2585C7.40507 20.2585 5.87547 19.8677 4.55824 19.0859C3.24716 18.2981 2.2223 17.1809 1.48366 15.7344C0.751184 14.2817 0.384943 12.5582 0.384943 10.5639C0.384943 9.0374 0.600379 7.67401 1.03125 6.47372C1.46828 5.27344 2.07765 4.25473 2.85938 3.41761C3.6411 2.57434 4.55824 1.93418 5.6108 1.49716C6.66335 1.05398 7.80824 0.832386 9.04546 0.832386C10.0919 0.832386 11.0675 0.986268 11.9723 1.29403C12.8771 1.59564 13.6804 2.02651 14.3821 2.58665C15.09 3.14678 15.6716 3.81155 16.1271 4.58096C16.5826 5.35038 16.8812 6.19981 17.0227 7.12926H13.5327Z" fill="#CB11AB"/>
</svg>
