<svg width="242" height="45" viewBox="0 0 242 45" fill="none" xmlns="http://www.w3.org/2000/svg">
<path d="M43.0371 35.9609C42.2344 35.9609 41.495 35.7603 40.819 35.3589C40.1642 34.9575 39.636 34.4294 39.2347 33.7745C38.8544 33.1197 38.6643 32.3909 38.6643 31.5882V24.6804H53.1769V22.1138C53.1769 22.0082 53.1346 21.9237 53.0501 21.8603C52.9868 21.7758 52.9023 21.7335 52.7966 21.7335H38.6643V17.5826H52.9551C53.7578 17.5826 54.4866 17.7833 55.1415 18.1846C55.8175 18.586 56.3456 19.1141 56.7258 19.769C57.1272 20.4238 57.3279 21.1526 57.3279 21.9554V35.9609H43.0371ZM43.1955 31.81H53.1769V28.4195H42.8153V31.4297C42.8153 31.5353 42.847 31.6304 42.9104 31.7149C42.9949 31.7783 43.0899 31.81 43.1955 31.81ZM64.7532 35.9609C63.9294 35.9609 63.19 35.7603 62.5352 35.3589C61.8803 34.9575 61.3522 34.4294 60.9508 33.7745C60.5706 33.1197 60.3804 32.3909 60.3804 31.5882V21.9554C60.3804 21.1526 60.5706 20.4238 60.9508 19.769C61.3522 19.1141 61.8803 18.586 62.5352 18.1846C63.19 17.7833 63.9294 17.5826 64.7532 17.5826H74.9247V11.5621H79.0757V35.9609H64.7532ZM64.9434 31.81H74.5445C74.6501 31.81 74.7346 31.7783 74.798 31.7149C74.8825 31.6304 74.9247 31.5353 74.9247 31.4297V22.1138C74.9247 22.0082 74.8825 21.9237 74.798 21.8603C74.7346 21.7758 74.6501 21.7335 74.5445 21.7335H64.9434C64.8377 21.7335 64.7427 21.7758 64.6582 21.8603C64.5948 21.9237 64.5631 22.0082 64.5631 22.1138V31.4297C64.5631 31.5353 64.5948 31.6304 64.6582 31.7149C64.7427 31.7783 64.8377 31.81 64.9434 31.81ZM85.793 43.2172V39.0346H96.8518C96.9574 39.0346 97.0419 38.9923 97.1052 38.9078C97.1897 38.8444 97.232 38.7599 97.232 38.6543V35.9609H87.0922C86.3106 35.9609 85.5818 35.7603 84.9058 35.3589C84.251 34.9575 83.7228 34.4294 83.3215 33.7745C82.9201 33.1197 82.7194 32.3909 82.7194 31.5882V21.9554C82.7194 21.1526 82.9201 20.4238 83.3215 19.769C83.7228 19.1141 84.251 18.586 84.9058 18.1846C85.5818 17.7833 86.3106 17.5826 87.0922 17.5826H97.0419C97.8446 17.5826 98.5734 17.7833 99.2283 18.1846C99.8831 18.586 100.401 19.1141 100.781 19.769C101.182 20.4238 101.383 21.1526 101.383 21.9554V38.8444C101.383 39.6683 101.193 40.4077 100.813 41.0625C100.432 41.7174 99.9043 42.2349 99.2283 42.6152C98.5734 43.0165 97.8446 43.2172 97.0419 43.2172H85.793ZM87.2506 31.81H96.8518C96.9574 31.81 97.0419 31.7783 97.1052 31.7149C97.1897 31.6304 97.232 31.5353 97.232 31.4297V22.1138C97.232 22.0082 97.1897 21.9237 97.1052 21.8603C97.0419 21.7758 96.9574 21.7335 96.8518 21.7335H87.2506C87.145 21.7335 87.05 21.7758 86.9655 21.8603C86.9021 21.9237 86.8704 22.0082 86.8704 22.1138V31.4297C86.8704 31.5353 86.9021 31.6304 86.9655 31.7149C87.05 31.7783 87.145 31.81 87.2506 31.81ZM109.023 35.9609C108.22 35.9609 107.491 35.7603 106.837 35.3589C106.182 34.9575 105.654 34.4294 105.252 33.7745C104.851 33.1197 104.65 32.3909 104.65 31.5882V21.9554C104.65 21.1526 104.851 20.4238 105.252 19.769C105.654 19.1141 106.182 18.586 106.837 18.1846C107.491 17.7833 108.22 17.5826 109.023 17.5826H118.941C119.744 17.5826 120.472 17.7833 121.127 18.1846C121.803 18.586 122.331 19.1141 122.712 19.769C123.113 20.4238 123.314 21.1526 123.314 21.9554V28.8631H108.801V31.4297C108.801 31.5353 108.833 31.6304 108.896 31.7149C108.981 31.7783 109.076 31.81 109.181 31.81H123.314V35.9609H109.023ZM108.801 25.124H119.163V22.1138C119.163 22.0082 119.121 21.9237 119.036 21.8603C118.973 21.7758 118.888 21.7335 118.783 21.7335H109.181C109.076 21.7335 108.981 21.7758 108.896 21.8603C108.833 21.9237 108.801 22.0082 108.801 22.1138V25.124ZM131.659 35.9609C130.857 35.9609 130.128 35.7603 129.473 35.3589C128.818 34.9575 128.29 34.4294 127.889 33.7745C127.487 33.1197 127.287 32.3909 127.287 31.5882V11.9423H131.438V17.5826H138.599V21.7335H131.438V31.4297C131.438 31.5353 131.469 31.6304 131.533 31.7149C131.617 31.7783 131.712 31.81 131.818 31.81H138.599V35.9609H131.659ZM146.805 35.9609C146.003 35.9609 145.263 35.7603 144.587 35.3589C143.932 34.9575 143.404 34.4294 143.003 33.7745C142.623 33.1197 142.433 32.3909 142.433 31.5882V24.6804H156.945V22.1138C156.945 22.0082 156.903 21.9237 156.818 21.8603C156.755 21.7758 156.67 21.7335 156.565 21.7335H142.433V17.5826H156.723C157.526 17.5826 158.255 17.7833 158.91 18.1846C159.586 18.586 160.114 19.1141 160.494 19.769C160.895 20.4238 161.096 21.1526 161.096 21.9554V35.9609H146.805ZM146.964 31.81H156.945V28.4195H146.583V31.4297C146.583 31.5353 146.615 31.6304 146.679 31.7149C146.763 31.7783 146.858 31.81 146.964 31.81ZM164.418 35.9609V21.9554C164.418 21.1526 164.618 20.4238 165.02 19.769C165.421 19.1141 165.949 18.586 166.604 18.1846C167.28 17.7833 168.009 17.5826 168.791 17.5826H178.994V21.7335H168.949C168.843 21.7335 168.748 21.7758 168.664 21.8603C168.6 21.9237 168.569 22.0082 168.569 22.1138V35.9609H164.418ZM182.04 35.9609V17.5826H186.191V35.9609H182.04ZM182.04 15.7447V11.5621H186.191V15.7447H182.04ZM194.102 35.9609C193.3 35.9609 192.56 35.7603 191.884 35.3589C191.229 34.9575 190.701 34.4294 190.3 33.7745C189.92 33.1197 189.73 32.3909 189.73 31.5882V17.5826H193.881V31.4297C193.881 31.5353 193.912 31.6304 193.976 31.7149C194.06 31.7783 194.155 31.81 194.261 31.81H203.862C203.968 31.81 204.052 31.7783 204.115 31.7149C204.2 31.6304 204.242 31.5353 204.242 31.4297V17.5826H208.393V31.5882C208.393 32.3909 208.192 33.1197 207.791 33.7745C207.411 34.4294 206.893 34.9575 206.238 35.3589C205.584 35.7603 204.844 35.9609 204.02 35.9609H194.102ZM211.654 35.9609V17.5826H234.436C235.26 17.5826 236 17.7833 236.655 18.1846C237.309 18.586 237.827 19.1141 238.207 19.769C238.609 20.4238 238.809 21.1526 238.809 21.9554V35.9609H234.69V22.1138C234.69 22.0082 234.648 21.9237 234.563 21.8603C234.479 21.7758 234.384 21.7335 234.278 21.7335H227.719C227.613 21.7335 227.518 21.7758 227.434 21.8603C227.37 21.9237 227.339 22.0082 227.339 22.1138V35.9609H223.156V22.1138C223.156 22.0082 223.114 21.9237 223.029 21.8603C222.966 21.7758 222.881 21.7335 222.776 21.7335H216.185C216.079 21.7335 215.984 21.7758 215.9 21.8603C215.836 21.9237 215.805 22.0082 215.805 22.1138V35.9609H211.654Z" fill="white"/>
<rect x="0.34668" y="0.396484" width="35.2516" height="40.0046" fill="#CB11AB"/>
<path d="M18.2059 36.3921C16.3759 36.3921 14.653 36.0594 13.0369 35.394C11.4447 34.7286 10.0544 33.8136 8.86616 32.6491C7.67791 31.4609 6.73918 30.0825 6.04999 28.514C5.38457 26.9217 5.05186 25.2106 5.05186 23.3807C5.05186 21.5508 5.39645 19.8516 6.08564 18.2831C6.77483 16.7146 7.72544 15.3481 8.93746 14.1836C10.1732 12.9954 11.611 12.0804 13.2508 11.4387C14.8906 10.7733 16.6492 10.4406 18.5267 10.4406C20.6893 10.4406 22.6499 10.8327 24.4086 11.617C26.1909 12.4012 27.6644 13.4825 28.8289 14.8609L25.0146 18.6752C24.2066 17.6296 23.2559 16.8453 22.1628 16.3225C21.0696 15.7996 19.8338 15.5382 18.4554 15.5382C16.982 15.5382 15.663 15.8709 14.4985 16.5364C13.334 17.178 12.419 18.093 11.7536 19.2812C11.112 20.4457 10.7911 21.8122 10.7911 23.3807C10.7911 24.9492 11.112 26.3276 11.7536 27.5158C12.3953 28.7041 13.2746 29.6309 14.3916 30.2964C15.5085 30.9618 16.7918 31.2945 18.2415 31.2945C19.7149 31.2945 20.9626 31.0212 21.9845 30.4746C23.0302 29.9042 23.8263 29.0962 24.3729 28.0506C24.9433 26.9811 25.2285 25.6859 25.2285 24.165L28.9358 26.6603L17.7068 26.4821V21.7409H30.9321V22.5608C30.9321 25.579 30.3855 28.1219 29.2923 30.1894C28.2229 32.2332 26.7257 33.778 24.8007 34.8236C22.8995 35.8693 20.7012 36.3921 18.2059 36.3921Z" fill="white"/>
</svg>
