<svg width="99" height="10" viewBox="0 0 99 10" fill="none" xmlns="http://www.w3.org/2000/svg">
<path d="M7.638 9H6.366V2.574L2.112 9H0.84V0.36H2.112V6.78L6.366 0.36H7.638V9ZM10.3127 9V0.36H11.5667V4.086H15.8867V0.36H17.1467V9H15.8867V5.268H11.5667V9H10.3127ZM22.7422 9V7.794C22.2982 7.87 21.8722 7.852 21.4642 7.74C21.0602 7.628 20.6982 7.428 20.3782 7.14C20.0622 6.852 19.8122 6.48 19.6282 6.024C19.4442 5.568 19.3522 5.036 19.3522 4.428C19.3522 3.816 19.4442 3.282 19.6282 2.826C19.8122 2.366 20.0622 1.99 20.3782 1.698C20.6982 1.406 21.0602 1.202 21.4642 1.086C21.8722 0.966 22.2982 0.944 22.7422 1.02V0.36H23.9902V1.02C24.4342 0.944 24.8582 0.966 25.2622 1.086C25.6702 1.202 26.0322 1.406 26.3482 1.698C26.6682 1.99 26.9202 2.366 27.1042 2.826C27.2922 3.282 27.3862 3.816 27.3862 4.428C27.3862 5.036 27.2922 5.568 27.1042 6.024C26.9202 6.48 26.6682 6.852 26.3482 7.14C26.0322 7.428 25.6702 7.628 25.2622 7.74C24.8582 7.852 24.4342 7.87 23.9902 7.794V9H22.7422ZM22.7422 6.63V2.166C22.3822 2.11 22.0682 2.134 21.8002 2.238C21.5362 2.342 21.3182 2.504 21.1462 2.724C20.9742 2.94 20.8462 3.196 20.7622 3.492C20.6782 3.784 20.6362 4.096 20.6362 4.428C20.6362 4.756 20.6782 5.066 20.7622 5.358C20.8462 5.646 20.9742 5.896 21.1462 6.108C21.3182 6.316 21.5362 6.468 21.8002 6.564C22.0682 6.66 22.3822 6.682 22.7422 6.63ZM23.9902 6.63C24.3502 6.682 24.6622 6.66 24.9262 6.564C25.1902 6.468 25.4082 6.316 25.5802 6.108C25.7562 5.9 25.8862 5.654 25.9702 5.37C26.0582 5.082 26.1022 4.778 26.1022 4.458C26.1022 4.138 26.0582 3.83 25.9702 3.534C25.8862 3.238 25.7562 2.978 25.5802 2.754C25.4082 2.526 25.1902 2.358 24.9262 2.25C24.6622 2.138 24.3502 2.11 23.9902 2.166V6.63ZM33.1921 9.18C32.3281 9.18 31.5921 8.992 30.9841 8.616C30.3761 8.236 29.9101 7.708 29.5861 7.032C29.2661 6.356 29.1061 5.572 29.1061 4.68C29.1061 3.788 29.2661 3.004 29.5861 2.328C29.9101 1.652 30.3761 1.126 30.9841 0.749999C31.5921 0.37 32.3281 0.18 33.1921 0.18C34.0521 0.18 34.7861 0.37 35.3941 0.749999C36.0061 1.126 36.4721 1.652 36.7921 2.328C37.1121 3.004 37.2721 3.788 37.2721 4.68C37.2721 5.572 37.1121 6.356 36.7921 7.032C36.4721 7.708 36.0061 8.236 35.3941 8.616C34.7861 8.992 34.0521 9.18 33.1921 9.18ZM33.1921 7.986C33.8041 7.994 34.3121 7.86 34.7161 7.584C35.1241 7.304 35.4301 6.916 35.6341 6.42C35.8381 5.92 35.9401 5.34 35.9401 4.68C35.9401 4.02 35.8381 3.444 35.6341 2.952C35.4301 2.456 35.1241 2.07 34.7161 1.794C34.3121 1.518 33.8041 1.378 33.1921 1.374C32.5801 1.366 32.0701 1.5 31.6621 1.776C31.2581 2.052 30.9541 2.44 30.7501 2.94C30.5461 3.44 30.4421 4.02 30.4381 4.68C30.4341 5.34 30.5341 5.918 30.7381 6.414C30.9421 6.906 31.2481 7.29 31.6561 7.566C32.0681 7.842 32.5801 7.982 33.1921 7.986ZM39.4689 9V0.36H44.9889V1.542H40.7229V9H39.4689ZM46.9494 9V0.36H50.4414C50.5254 0.36 50.6294 0.364 50.7534 0.372C50.8774 0.376 50.9954 0.388 51.1074 0.408C51.5874 0.483999 51.9874 0.648 52.3074 0.9C52.6314 1.152 52.8734 1.47 53.0334 1.854C53.1934 2.238 53.2734 2.662 53.2734 3.126C53.2734 3.594 53.1934 4.02 53.0334 4.404C52.8734 4.788 52.6314 5.106 52.3074 5.358C51.9874 5.61 51.5874 5.774 51.1074 5.85C50.9954 5.866 50.8754 5.878 50.7474 5.886C50.6234 5.894 50.5214 5.898 50.4414 5.898H48.2034V9H46.9494ZM48.2034 4.71H50.3934C50.4734 4.71 50.5614 4.706 50.6574 4.698C50.7574 4.69 50.8514 4.676 50.9394 4.656C51.1954 4.596 51.4014 4.486 51.5574 4.326C51.7134 4.162 51.8254 3.974 51.8934 3.762C51.9614 3.55 51.9954 3.338 51.9954 3.126C51.9954 2.914 51.9614 2.704 51.8934 2.496C51.8254 2.284 51.7134 2.098 51.5574 1.938C51.4014 1.774 51.1954 1.662 50.9394 1.602C50.8514 1.578 50.7574 1.562 50.6574 1.554C50.5614 1.546 50.4734 1.542 50.3934 1.542H48.2034V4.71ZM54.3923 9L57.2003 0.36H59.0063L61.8143 9H60.5123L57.9263 1.116H58.2503L55.6943 9H54.3923ZM55.8503 7.05V5.874H60.3623V7.05H55.8503ZM66.5664 9V7.794C66.1224 7.87 65.6964 7.852 65.2884 7.74C64.8844 7.628 64.5224 7.428 64.2024 7.14C63.8864 6.852 63.6364 6.48 63.4524 6.024C63.2684 5.568 63.1764 5.036 63.1764 4.428C63.1764 3.816 63.2684 3.282 63.4524 2.826C63.6364 2.366 63.8864 1.99 64.2024 1.698C64.5224 1.406 64.8844 1.202 65.2884 1.086C65.6964 0.966 66.1224 0.944 66.5664 1.02V0.36H67.8144V1.02C68.2584 0.944 68.6824 0.966 69.0864 1.086C69.4944 1.202 69.8564 1.406 70.1724 1.698C70.4924 1.99 70.7444 2.366 70.9284 2.826C71.1164 3.282 71.2104 3.816 71.2104 4.428C71.2104 5.036 71.1164 5.568 70.9284 6.024C70.7444 6.48 70.4924 6.852 70.1724 7.14C69.8564 7.428 69.4944 7.628 69.0864 7.74C68.6824 7.852 68.2584 7.87 67.8144 7.794V9H66.5664ZM66.5664 6.63V2.166C66.2064 2.11 65.8924 2.134 65.6244 2.238C65.3604 2.342 65.1424 2.504 64.9704 2.724C64.7984 2.94 64.6704 3.196 64.5864 3.492C64.5024 3.784 64.4604 4.096 64.4604 4.428C64.4604 4.756 64.5024 5.066 64.5864 5.358C64.6704 5.646 64.7984 5.896 64.9704 6.108C65.1424 6.316 65.3604 6.468 65.6244 6.564C65.8924 6.66 66.2064 6.682 66.5664 6.63ZM67.8144 6.63C68.1744 6.682 68.4864 6.66 68.7504 6.564C69.0144 6.468 69.2324 6.316 69.4044 6.108C69.5804 5.9 69.7104 5.654 69.7944 5.37C69.8824 5.082 69.9264 4.778 69.9264 4.458C69.9264 4.138 69.8824 3.83 69.7944 3.534C69.7104 3.238 69.5804 2.978 69.4044 2.754C69.2324 2.526 69.0144 2.358 68.7504 2.25C68.4864 2.138 68.1744 2.11 67.8144 2.166V6.63ZM80.2083 9H78.9363V2.574L74.6823 9H73.4103V0.36H74.6823V6.78L78.9363 0.36H80.2083V9ZM82.883 9V0.36H84.137V4.392L87.755 0.36H89.315L85.493 4.578L89.597 9H87.989L84.137 4.872V9H82.883ZM90.8416 9L93.6496 0.36H95.4556L98.2636 9H96.9616L94.3756 1.116H94.6996L92.1436 9H90.8416ZM92.2996 7.05V5.874H96.8116V7.05H92.2996Z" fill="#292929"/>
</svg>
