<svg width="46" height="30" viewBox="0 0 46 30" fill="none" xmlns="http://www.w3.org/2000/svg">
<path fill-rule="evenodd" clip-rule="evenodd" d="M35.4452 24.1734V24.2285H35.4974C35.5072 24.2287 35.5169 24.2263 35.5254 24.2215C35.5323 24.2167 35.5363 24.2088 35.5358 24.2004C35.5362 24.1922 35.5323 24.1844 35.5254 24.1799C35.517 24.1749 35.5072 24.1724 35.4974 24.1728H35.4452V24.1734ZM35.4979 24.1343C35.5203 24.133 35.5425 24.1394 35.5606 24.1523C35.5754 24.1642 35.5836 24.1824 35.5827 24.2012C35.5833 24.2173 35.5769 24.2329 35.565 24.244C35.551 24.256 35.5334 24.2632 35.5149 24.2646L35.5848 24.3432H35.5309L35.4666 24.2651H35.4457V24.3432H35.4006V24.1345H35.4986L35.4979 24.1343ZM35.4839 24.4152C35.5076 24.4154 35.531 24.4107 35.5527 24.4014C35.5736 24.3925 35.5926 24.3798 35.6087 24.364C35.6248 24.3482 35.6377 24.3295 35.6466 24.3088C35.665 24.2651 35.665 24.216 35.6466 24.1723C35.6376 24.1517 35.6247 24.133 35.6087 24.1171C35.5926 24.1013 35.5736 24.0886 35.5527 24.0797C35.5308 24.0709 35.5075 24.0665 35.4839 24.0667C35.46 24.0666 35.4362 24.0709 35.4139 24.0797C35.3926 24.0884 35.3731 24.1011 35.3567 24.1171C35.3061 24.1682 35.2914 24.2444 35.3193 24.3103C35.3278 24.3309 35.3405 24.3497 35.3567 24.3654C35.3732 24.3814 35.3926 24.3941 35.4139 24.4028C35.4361 24.4121 35.4599 24.4168 35.4839 24.4166V24.4152ZM35.4839 24.0166C35.5455 24.0165 35.6045 24.0403 35.6485 24.0827C35.6696 24.1031 35.6864 24.1275 35.698 24.1544C35.7222 24.21 35.7222 24.2731 35.698 24.3289C35.6861 24.3555 35.6693 24.3798 35.6485 24.4004C35.627 24.4207 35.602 24.4371 35.5747 24.4487C35.546 24.4607 35.5151 24.4669 35.4839 24.4667C35.4524 24.4669 35.4212 24.4608 35.3921 24.4487C35.3645 24.4374 35.3393 24.421 35.3177 24.4004C35.2969 24.3791 35.2803 24.354 35.2689 24.3265C35.2448 24.2708 35.2448 24.2077 35.2689 24.152C35.2804 24.1251 35.2973 24.1008 35.3185 24.0804C35.3397 24.0595 35.3649 24.0431 35.3928 24.0321C35.4218 24.02 35.4532 24.014 35.4846 24.0142L35.4839 24.0166ZM14.0499 23.2105C14.0499 22.8126 14.3146 22.4856 14.7469 22.4856C15.1601 22.4856 15.439 22.7985 15.439 23.2105C15.439 23.6226 15.1601 23.9354 14.7469 23.9354C14.3146 23.9354 14.0499 23.6085 14.0499 23.2105ZM15.91 23.2105V22.078H15.4104V22.3539C15.252 22.15 15.0116 22.0222 14.6847 22.0222C14.0408 22.0222 13.5355 22.5199 13.5355 23.2111C13.5355 23.9023 14.0406 24.4001 14.6847 24.4001C15.0115 24.4001 15.252 24.272 15.4104 24.0683V24.3432H15.9095V23.2105H15.91ZM32.7907 23.2105C32.7907 22.8126 33.0552 22.4856 33.4878 22.4856C33.9014 22.4856 34.1799 22.7985 34.1799 23.2105C34.1799 23.6226 33.9014 23.9354 33.4878 23.9354C33.0554 23.9354 32.7907 23.6085 32.7907 23.2105ZM34.6513 23.2105V21.1689H34.1513V22.3539C33.9928 22.15 33.7525 22.0222 33.4257 22.0222C32.7817 22.0222 32.2764 22.5199 32.2764 23.2111C32.2764 23.9023 32.7814 24.4001 33.4257 24.4001C33.7525 24.4001 33.9928 24.272 34.1513 24.0683V24.3432H34.6513V23.2105ZM22.1107 22.4623C22.4326 22.4623 22.6394 22.6613 22.6921 23.0115H21.5001C21.5534 22.6845 21.7548 22.4623 22.1108 22.4623H22.1107ZM22.1207 22.0209C21.4474 22.0209 20.9764 22.5037 20.9764 23.2099C20.9764 23.9298 21.4663 24.3988 22.1542 24.3988C22.5002 24.3988 22.8172 24.3137 23.096 24.0815L22.8511 23.7167C22.6586 23.8684 22.4133 23.9535 22.1827 23.9535C21.8608 23.9535 21.5677 23.8066 21.4956 23.3989H23.2015C23.2064 23.3377 23.2114 23.2759 23.2114 23.2097C23.2064 22.5039 22.7636 22.0207 22.1205 22.0207L22.1207 22.0209ZM28.1523 23.2097C28.1523 22.8117 28.4168 22.4848 28.8492 22.4848C29.2625 22.4848 29.5413 22.7976 29.5413 23.2097C29.5413 23.6217 29.2625 23.9346 28.8492 23.9346C28.4168 23.9346 28.1521 23.6077 28.1521 23.2097H28.1523ZM30.0122 23.2097V22.078H29.5129V22.3539C29.3539 22.15 29.1141 22.0222 28.7872 22.0222C28.1433 22.0222 27.638 22.5199 27.638 23.2111C27.638 23.9023 28.143 24.4001 28.7872 24.4001C29.1141 24.4001 29.3539 24.272 29.5129 24.0683V24.3432H30.0123V23.2105L30.0122 23.2097ZM25.3309 23.2097C25.3309 23.8965 25.8161 24.3986 26.5566 24.3986C26.9026 24.3986 27.1332 24.3228 27.3825 24.1287L27.1426 23.7307C26.955 23.8635 26.758 23.9346 26.5407 23.9346C26.1418 23.9298 25.8486 23.6456 25.8486 23.2097C25.8486 22.7738 26.1418 22.4897 26.5407 22.4848C26.7575 22.4848 26.9544 22.5558 27.1426 22.6886L27.3825 22.2907C27.1328 22.0966 26.9022 22.0207 26.5566 22.0207C25.8161 22.0207 25.3309 22.5227 25.3309 23.2097ZM31.7715 22.0207C31.4833 22.0207 31.2956 22.1535 31.1658 22.3525V22.078H30.6707V24.3419H31.1708V23.0728C31.1708 22.6982 31.3342 22.49 31.6608 22.49C31.7677 22.4885 31.8739 22.5079 31.9732 22.547L32.1272 22.083C32.0166 22.04 31.8724 22.0212 31.7712 22.0212L31.7715 22.0207ZM18.38 22.258C18.1397 22.1018 17.8084 22.0212 17.4431 22.0212C16.861 22.0212 16.4863 22.2961 16.4863 22.746C16.4863 23.1151 16.7653 23.3428 17.2791 23.4139L17.515 23.4469C17.789 23.4849 17.9183 23.556 17.9183 23.6838C17.9183 23.8589 17.7364 23.9588 17.3947 23.9588C17.0486 23.9588 16.7989 23.8498 16.6305 23.7219L16.3957 24.1058C16.6697 24.3047 17.0158 24.3996 17.3905 24.3996C18.054 24.3996 18.4385 24.0917 18.4385 23.6606C18.4385 23.2626 18.1359 23.0545 17.6359 22.9835L17.4004 22.9498C17.1841 22.9222 17.0109 22.8793 17.0109 22.7275C17.0109 22.5621 17.1742 22.4624 17.4483 22.4624C17.7415 22.4624 18.0254 22.5714 18.1646 22.6565L18.3808 22.2585L18.38 22.258ZM24.8263 22.0215C24.5381 22.0215 24.3504 22.1544 24.2212 22.3533V22.078H23.726V24.3419H24.2256V23.0728C24.2256 22.6982 24.389 22.49 24.7156 22.49C24.8225 22.4885 24.9287 22.5079 25.028 22.547L25.182 22.083C25.0714 22.04 24.9272 22.0212 24.826 22.0212L24.8263 22.0215ZM20.563 22.078H19.746V21.3912H19.241V22.078H18.7751V22.528H19.241V23.5608C19.241 24.086 19.4479 24.3989 20.0389 24.3989C20.2557 24.3989 20.5055 24.3327 20.6639 24.2239L20.5196 23.8023C20.3705 23.8874 20.2072 23.9303 20.0773 23.9303C19.8275 23.9303 19.746 23.7786 19.746 23.5514V22.5284H20.563V22.078ZM13.0937 24.3425V22.9217C13.0937 22.3866 12.7477 22.0265 12.1899 22.0217C11.8966 22.0169 11.5941 22.1069 11.3824 22.4245C11.2239 22.1735 10.9742 22.0217 10.6231 22.0217C10.3777 22.0217 10.1379 22.0927 9.95016 22.3579V22.078H9.4502V24.3419H9.95407V23.0866C9.95407 22.6936 10.1752 22.4848 10.5168 22.4848C10.8485 22.4848 11.0164 22.6979 11.0164 23.0817V24.3417H11.5215V23.0863C11.5215 22.6934 11.752 22.4845 12.0836 22.4845C12.4248 22.4845 12.5876 22.6977 12.5876 23.0814V24.3414L13.0937 24.3425Z" fill="#231F20"/>
<path fill-rule="evenodd" clip-rule="evenodd" d="M35.7299 16.8116V16.4805H35.6425L35.5413 16.7076L35.4406 16.4805H35.3529V16.8116H35.4149V16.5621L35.5096 16.7773H35.574L35.6686 16.5616V16.8116H35.7302H35.7299ZM35.1749 16.8116V16.5372H35.2869V16.4813H35.0007V16.5372H35.1127V16.8116H35.1749Z" fill="#F79410"/>
<path fill-rule="evenodd" clip-rule="evenodd" d="M25.7861 18.2316H18.2151V4.82324H25.7863L25.7861 18.2316Z" fill="#FF5F00"/>
<path fill-rule="evenodd" clip-rule="evenodd" d="M18.6946 11.5275C18.6946 8.80758 19.987 6.38469 21.9993 4.82324C20.4763 3.63983 18.5916 2.99715 16.6522 3.00001C11.8736 3.00001 8 6.81782 8 11.5275C8 16.2371 11.8736 20.0549 16.6522 20.0549C18.5916 20.0577 20.4764 19.4151 21.9995 18.2316C19.9873 16.6705 18.6946 14.2475 18.6946 11.5275Z" fill="#EB001B"/>
<path fill-rule="evenodd" clip-rule="evenodd" d="M36.0001 11.5275C36.0001 16.2371 32.1265 20.0549 27.348 20.0549C25.4083 20.0576 23.5233 19.415 22 18.2316C24.0129 16.6702 25.3053 14.2475 25.3053 11.5275C25.3053 8.8074 24.0129 6.38469 22 4.82324C23.5232 3.63983 25.4082 2.99724 27.3478 3.00001C32.1264 3.00001 36 6.81782 36 11.5275" fill="#F79410"/>
</svg>
