<svg width="13" height="13" viewBox="0 0 15 17" fill="none" xmlns="http://www.w3.org/2000/svg">
  <path d="M7.4375 14.375C6.07083 14.375 4.90833 14.0708 3.95 13.4625C3 12.8458 2.275 12 1.775 10.925C1.275 9.85 1.01667 8.625 1 7.25C1.01667 5.84167 1.27917 4.60417 1.7875 3.5375C2.30417 2.4625 3.04167 1.625 4 1.025C4.95833 0.424999 6.1125 0.125 7.4625 0.125C8.8875 0.125 10.1125 0.475 11.1375 1.175C12.1708 1.875 12.8625 2.83333 13.2125 4.05L11.0125 4.7125C10.7292 3.92917 10.2667 3.32083 9.625 2.8875C8.99167 2.45417 8.2625 2.2375 7.4375 2.2375C6.5125 2.2375 5.75 2.45417 5.15 2.8875C4.55 3.3125 4.10417 3.90417 3.8125 4.6625C3.52083 5.4125 3.37083 6.275 3.3625 7.25C3.37917 8.75 3.725 9.9625 4.4 10.8875C5.08333 11.8042 6.09583 12.2625 7.4375 12.2625C8.32083 12.2625 9.05417 12.0625 9.6375 11.6625C10.2208 11.2542 10.6625 10.6667 10.9625 9.9L13.2125 10.4875C12.7458 11.7458 12.0167 12.7083 11.025 13.375C10.0333 14.0417 8.8375 14.375 7.4375 14.375Z" fill="#000000" stroke="#000000" stroke-width="1"/>
  <path d="M0 15.5625H14.025V16.1875H0V15.5625Z" fill="#000000" stroke="#000000" stroke-width="1"/>
</svg>
