<svg width="46" height="30" viewBox="0 0 46 30" fill="none" xmlns="http://www.w3.org/2000/svg">
<path d="M17.5157 8.24463L15.5845 19.5779H18.6732L20.606 8.24463H17.5157Z" fill="#3665C8"/>
<path d="M12.9946 8.25727L9.96946 15.9862L9.64692 14.8192C9.05031 13.4131 7.3566 11.3936 5.36816 10.121L8.13434 19.5722L11.4026 19.5667L16.2668 8.25488L12.9946 8.25727Z" fill="#3665C8"/>
<path d="M8.4743 9.0682C8.29476 8.37784 7.77441 8.17209 7.12855 8.14746H2.33977L2.30005 8.37308C6.02668 9.27713 8.49257 11.4554 9.51579 14.0746L8.4743 9.0682Z" fill="#3665C8"/>
<path d="M26.8663 10.4172C27.8768 10.4013 28.6092 10.6221 29.178 10.8509L29.4569 10.982L29.8747 8.52566C29.263 8.29607 28.3042 8.0498 27.1078 8.0498C24.0556 8.0498 21.9043 9.58701 21.8876 11.7899C21.8677 13.4177 23.42 14.3265 24.5926 14.8691C25.7962 15.4252 26.1997 15.7787 26.1942 16.2753C26.1846 17.0339 25.2345 17.3819 24.3471 17.3819C23.1102 17.3819 22.4532 17.2111 21.4388 16.7885L21.0408 16.6073L20.6062 19.1439C21.3291 19.4609 22.663 19.7334 24.0476 19.7477C27.2944 19.7477 29.4044 18.2287 29.4267 15.8749C29.4402 14.5871 28.6164 13.6044 26.8313 12.7981C25.7509 12.2722 25.0899 11.9226 25.0963 11.3919C25.0963 10.9208 25.6571 10.4172 26.8663 10.4172Z" fill="#3665C8"/>
<path d="M37.8008 8.25732H35.4144C34.6732 8.25732 34.1219 8.45911 33.7962 9.19792L29.21 19.5842H32.4536C32.4536 19.5842 32.9827 18.1876 33.1026 17.8817C33.4577 17.8817 36.6092 17.8865 37.0581 17.8865C37.1502 18.2821 37.4346 19.5842 37.4346 19.5842H40.3001L37.8008 8.25732ZM33.9916 15.562C34.2458 14.9114 35.2221 12.3947 35.2221 12.3947C35.2055 12.4257 35.474 11.7393 35.6337 11.3127L35.8418 12.2898C35.8418 12.2898 36.4336 14.9956 36.5576 15.562H33.9916Z" fill="#3665C8"/>
</svg>
