<svg width="1920" height="500" viewBox="0 0 1920 500" fill="none" xmlns="http://www.w3.org/2000/svg">
<rect width="1920" height="500" fill="#E9EAEF"/>
<rect width="1920" height="500" fill="url(#paint0_linear_3_26436)"/>
<path d="M969.213 408L1309.87 500H195L969.213 408Z" fill="#CB11AB"/>
<path d="M264.236 102.307C264.162 102.006 264.045 101.741 263.886 101.514C263.727 101.281 263.528 101.085 263.29 100.926C263.057 100.761 262.784 100.639 262.471 100.56C262.165 100.474 261.827 100.432 261.457 100.432C260.662 100.432 259.983 100.622 259.42 101.003C258.863 101.384 258.437 101.932 258.142 102.648C257.852 103.364 257.707 104.227 257.707 105.239C257.707 106.261 257.846 107.136 258.125 107.864C258.403 108.591 258.818 109.148 259.369 109.534C259.92 109.92 260.605 110.114 261.423 110.114C262.145 110.114 262.744 110.009 263.221 109.798C263.704 109.588 264.065 109.29 264.304 108.903C264.542 108.517 264.662 108.062 264.662 107.54L265.48 107.625H261.491V104.25H269.23V106.67C269.23 108.261 268.892 109.622 268.216 110.753C267.545 111.878 266.619 112.741 265.437 113.344C264.261 113.94 262.912 114.239 261.389 114.239C259.69 114.239 258.199 113.878 256.915 113.156C255.631 112.435 254.628 111.406 253.906 110.071C253.19 108.736 252.832 107.148 252.832 105.307C252.832 103.864 253.051 102.585 253.488 101.472C253.932 100.358 254.545 99.4176 255.329 98.6506C256.113 97.8778 257.02 97.2955 258.048 96.9034C259.077 96.5057 260.179 96.3068 261.355 96.3068C262.389 96.3068 263.349 96.4545 264.236 96.75C265.128 97.0398 265.915 97.4545 266.596 97.9943C267.284 98.5284 267.838 99.1619 268.258 99.8949C268.679 100.628 268.934 101.432 269.025 102.307H264.236ZM275.434 114H270.321L276.082 96.5455H282.559L288.321 114H283.207L279.389 101.352H279.253L275.434 114ZM274.48 107.114H284.094V110.659H274.48V107.114ZM296.718 114H290.002V96.5455H296.65C298.445 96.5455 299.996 96.8949 301.303 97.5938C302.616 98.2869 303.627 99.2869 304.337 100.594C305.053 101.895 305.411 103.455 305.411 105.273C305.411 107.091 305.056 108.653 304.346 109.96C303.635 111.261 302.63 112.261 301.329 112.96C300.028 113.653 298.491 114 296.718 114ZM294.741 109.977H296.547C297.411 109.977 298.147 109.838 298.755 109.56C299.368 109.281 299.834 108.801 300.153 108.119C300.476 107.437 300.638 106.489 300.638 105.273C300.638 104.057 300.474 103.108 300.144 102.426C299.82 101.744 299.343 101.264 298.712 100.986C298.087 100.707 297.32 100.568 296.411 100.568H294.741V109.977ZM318.939 102.307C318.865 102.006 318.748 101.741 318.589 101.514C318.43 101.281 318.231 101.085 317.993 100.926C317.76 100.761 317.487 100.639 317.175 100.56C316.868 100.474 316.53 100.432 316.16 100.432C315.365 100.432 314.686 100.622 314.123 101.003C313.567 101.384 313.14 101.932 312.845 102.648C312.555 103.364 312.41 104.227 312.41 105.239C312.41 106.261 312.55 107.136 312.828 107.864C313.106 108.591 313.521 109.148 314.072 109.534C314.623 109.92 315.308 110.114 316.126 110.114C316.848 110.114 317.447 110.009 317.925 109.798C318.407 109.588 318.768 109.29 319.007 108.903C319.246 108.517 319.365 108.062 319.365 107.54L320.183 107.625H316.194V104.25H323.933V106.67C323.933 108.261 323.595 109.622 322.919 110.753C322.248 111.878 321.322 112.741 320.14 113.344C318.964 113.94 317.615 114.239 316.092 114.239C314.393 114.239 312.902 113.878 311.618 113.156C310.334 112.435 309.331 111.406 308.609 110.071C307.893 108.736 307.535 107.148 307.535 105.307C307.535 103.864 307.754 102.585 308.192 101.472C308.635 100.358 309.248 99.4176 310.032 98.6506C310.817 97.8778 311.723 97.2955 312.751 96.9034C313.78 96.5057 314.882 96.3068 316.058 96.3068C317.092 96.3068 318.052 96.4545 318.939 96.75C319.831 97.0398 320.618 97.4545 321.3 97.9943C321.987 98.5284 322.541 99.1619 322.961 99.8949C323.382 100.628 323.638 101.432 323.729 102.307H318.939ZM326.143 114V96.5455H338.722V100.364H330.881V103.364H338.074V107.182H330.881V110.182H338.688V114H326.143ZM340.595 100.364V96.5455H355.765V100.364H350.515V114H345.845V100.364H340.595ZM359.88 114H354.766L360.528 96.5455H367.005L372.766 114H367.653L363.834 101.352H363.698L359.88 114ZM358.925 107.114H368.539V110.659H358.925V107.114ZM374.447 114V96.5455H381.981C383.277 96.5455 384.41 96.7812 385.382 97.2528C386.354 97.7244 387.109 98.4034 387.649 99.2898C388.189 100.176 388.459 101.239 388.459 102.477C388.459 103.727 388.18 104.781 387.623 105.639C387.072 106.497 386.297 107.145 385.297 107.582C384.302 108.02 383.14 108.239 381.811 108.239H377.311V104.557H380.856C381.413 104.557 381.888 104.489 382.28 104.352C382.677 104.21 382.981 103.986 383.192 103.679C383.407 103.372 383.515 102.972 383.515 102.477C383.515 101.977 383.407 101.571 383.192 101.259C382.981 100.94 382.677 100.707 382.28 100.56C381.888 100.406 381.413 100.33 380.856 100.33H379.186V114H374.447ZM384.675 105.989L389.038 114H383.89L379.629 105.989H384.675ZM395.217 96.5455V114H390.479V96.5455H395.217ZM407.792 96.5455H412.531V107.727C412.531 109.057 412.213 110.207 411.577 111.179C410.946 112.145 410.065 112.892 408.934 113.42C407.804 113.943 406.491 114.205 404.997 114.205C403.491 114.205 402.173 113.943 401.042 113.42C399.912 112.892 399.031 112.145 398.4 111.179C397.775 110.207 397.463 109.057 397.463 107.727V96.5455H402.202V107.318C402.202 107.858 402.321 108.341 402.559 108.767C402.798 109.187 403.128 109.517 403.548 109.756C403.974 109.994 404.457 110.114 404.997 110.114C405.542 110.114 406.025 109.994 406.446 109.756C406.866 109.517 407.196 109.187 407.434 108.767C407.673 108.341 407.792 107.858 407.792 107.318V96.5455ZM414.783 96.5455H420.681L424.738 106.432H424.942L428.999 96.5455H434.897V114H430.26V103.909H430.124L426.238 113.864H423.442L419.556 103.841H419.42V114H414.783V96.5455Z" fill="#CB11AB"/>
<path d="M259.375 190.497V182.827H261.15C262.192 182.827 263.015 182.744 263.618 182.578C264.234 182.401 264.707 182.093 265.039 181.655C265.382 181.205 265.672 180.578 265.909 179.773L266.264 178.707L252.628 153.636H262.713L270.312 168.409L276.136 153.636H286.079L273.579 182.045C272.893 183.537 272.076 184.928 271.129 186.218C270.182 187.496 269.004 188.532 267.596 189.325C266.187 190.107 264.441 190.497 262.358 190.497H259.375ZM320.685 167.273H310.671C310.6 166.444 310.411 165.692 310.103 165.018C309.807 164.343 309.393 163.763 308.86 163.278C308.339 162.781 307.706 162.402 306.96 162.141C306.214 161.869 305.368 161.733 304.421 161.733C302.764 161.733 301.361 162.135 300.213 162.94C299.077 163.745 298.212 164.899 297.621 166.403C297.041 167.906 296.751 169.711 296.751 171.818C296.751 174.044 297.046 175.908 297.638 177.411C298.242 178.903 299.112 180.027 300.248 180.785C301.385 181.531 302.752 181.903 304.35 181.903C305.261 181.903 306.078 181.791 306.8 181.566C307.522 181.329 308.15 180.992 308.682 180.554C309.215 180.116 309.647 179.589 309.979 178.974C310.322 178.346 310.553 177.642 310.671 176.861L320.685 176.932C320.567 178.471 320.135 180.039 319.389 181.637C318.643 183.223 317.584 184.691 316.211 186.04C314.849 187.378 313.163 188.455 311.15 189.272C309.138 190.089 306.8 190.497 304.137 190.497C300.799 190.497 297.804 189.781 295.153 188.349C292.513 186.916 290.424 184.809 288.885 182.028C287.358 179.246 286.594 175.843 286.594 171.818C286.594 167.77 287.376 164.361 288.938 161.591C290.501 158.809 292.608 156.708 295.259 155.288C297.911 153.855 300.87 153.139 304.137 153.139C306.433 153.139 308.546 153.453 310.476 154.08C312.405 154.708 314.098 155.625 315.554 156.832C317.01 158.028 318.182 159.502 319.069 161.254C319.957 163.005 320.496 165.012 320.685 167.273ZM358.545 153.636V190H348.815V161.449H336.528V190H326.798V153.636H358.545ZM364.861 190V153.636H391.069V161.591H374.733V167.841H389.719V175.795H374.733V182.045H390.998V190H364.861ZM395.965 153.636H405.837V172.67H406.121L419.047 153.636H427.428V190H417.556V170.895H417.343L404.203 190H395.965V153.636ZM415.283 143.835H421.462C421.45 146.143 420.568 147.99 418.816 149.375C417.065 150.748 414.703 151.435 411.732 151.435C408.737 151.435 406.364 150.748 404.612 149.375C402.86 147.99 401.99 146.143 402.002 143.835H408.11C408.098 144.581 408.364 145.268 408.909 145.895C409.465 146.51 410.406 146.818 411.732 146.818C412.998 146.818 413.904 146.516 414.449 145.913C414.993 145.309 415.271 144.616 415.283 143.835ZM431.103 161.591V153.636H462.708V161.591H451.771V190H442.041V161.591H431.103ZM466.424 153.636H476.296V172.67H476.58L489.506 153.636H497.887V190H488.015V170.895H487.802L474.662 190H466.424V153.636ZM534.925 190L523.775 175.298H522.39V190H512.518V153.636H522.39V167.344H523.668L534.108 153.636H546.537L532.688 171.108L547.319 190H534.925ZM555.224 190.497V182.827H557C558.042 182.827 558.864 182.744 559.468 182.578C560.084 182.401 560.557 182.093 560.888 181.655C561.232 181.205 561.522 180.578 561.759 179.773L562.114 178.707L548.477 153.636H558.562L566.162 168.409L571.986 153.636H581.929L569.429 182.045C568.742 183.537 567.926 184.928 566.979 186.218C566.032 187.496 564.854 188.532 563.445 189.325C562.037 190.107 560.291 190.497 558.207 190.497H555.224ZM618.506 153.636V190H608.776V161.449H596.489V190H586.759V153.636H618.506ZM624.822 153.636H634.694V172.67H634.979L647.905 153.636H656.285V190H646.413V170.895H646.2L633.061 190H624.822V153.636ZM659.961 161.591V153.636H691.566V161.591H680.628V190H670.898V161.591H659.961ZM701.531 165.852H709.06C712.125 165.852 714.801 166.344 717.085 167.326C719.382 168.308 721.163 169.693 722.43 171.481C723.708 173.268 724.341 175.369 724.33 177.784C724.341 180.199 723.708 182.324 722.43 184.158C721.163 185.993 719.382 187.425 717.085 188.455C714.801 189.485 712.125 190 709.06 190H695.494V153.636H705.366V182.259H709.06C710.255 182.259 711.255 182.063 712.06 181.673C712.877 181.282 713.493 180.743 713.907 180.057C714.333 179.37 714.54 178.589 714.528 177.713C714.54 176.47 714.079 175.44 713.143 174.624C712.208 173.795 710.847 173.381 709.06 173.381H701.531V165.852ZM254.261 250V222.727H264.062V250H254.261ZM259.162 219.886C257.836 219.886 256.7 219.448 255.753 218.572C254.806 217.696 254.332 216.643 254.332 215.412C254.332 214.181 254.806 213.127 255.753 212.251C256.7 211.375 257.836 210.938 259.162 210.938C260.499 210.938 261.636 211.375 262.571 212.251C263.518 213.127 263.991 214.181 263.991 215.412C263.991 216.643 263.518 217.696 262.571 218.572C261.636 219.448 260.499 219.886 259.162 219.886ZM268.914 250V213.636H284.61C287.309 213.636 289.67 214.169 291.695 215.234C293.719 216.3 295.293 217.797 296.418 219.727C297.542 221.656 298.104 223.911 298.104 226.491C298.104 229.096 297.524 231.351 296.364 233.256C295.216 235.162 293.6 236.63 291.517 237.66C289.446 238.69 287.025 239.205 284.255 239.205H274.88V231.534H282.266C283.426 231.534 284.415 231.333 285.232 230.93C286.06 230.516 286.693 229.93 287.131 229.173C287.581 228.415 287.806 227.521 287.806 226.491C287.806 225.45 287.581 224.562 287.131 223.828C286.693 223.082 286.06 222.514 285.232 222.124C284.415 221.721 283.426 221.52 282.266 221.52H278.786V250H268.914ZM301.727 250V213.636H311.599V227.841H324.667V213.636H334.539V250H324.667V235.795H311.599V250H301.727ZM374.454 231.818C374.454 235.866 373.667 239.281 372.092 242.063C370.518 244.833 368.393 246.934 365.718 248.366C363.043 249.787 360.06 250.497 356.769 250.497C353.455 250.497 350.46 249.781 347.785 248.349C345.121 246.905 343.003 244.798 341.428 242.028C339.866 239.246 339.085 235.843 339.085 231.818C339.085 227.77 339.866 224.361 341.428 221.591C343.003 218.809 345.121 216.708 347.785 215.288C350.46 213.855 353.455 213.139 356.769 213.139C360.06 213.139 363.043 213.855 365.718 215.288C368.393 216.708 370.518 218.809 372.092 221.591C373.667 224.361 374.454 227.77 374.454 231.818ZM364.298 231.818C364.298 229.64 364.008 227.805 363.428 226.314C362.859 224.811 362.013 223.674 360.888 222.905C359.776 222.124 358.403 221.733 356.769 221.733C355.136 221.733 353.757 222.124 352.632 222.905C351.519 223.674 350.673 224.811 350.093 226.314C349.525 227.805 349.241 229.64 349.241 231.818C349.241 233.996 349.525 235.837 350.093 237.34C350.673 238.832 351.519 239.968 352.632 240.749C353.757 241.519 355.136 241.903 356.769 241.903C358.403 241.903 359.776 241.519 360.888 240.749C362.013 239.968 362.859 238.832 363.428 237.34C364.008 235.837 364.298 233.996 364.298 231.818ZM410.485 213.636V250H402.246L389.107 230.895H388.894V250H379.021V213.636H387.402L400.328 232.67H400.612V213.636H410.485ZM415.154 250V213.636H441.362V221.591H425.026V227.841H440.012V235.795H425.026V242.045H441.291V250H415.154ZM474.116 213.636V250H464.244V222.727H464.031L456.077 227.486V219.105L465.026 213.636H474.116ZM495.787 250.497C492.923 250.497 490.378 250.006 488.152 249.023C485.939 248.029 484.199 246.662 482.932 244.922C481.666 243.182 481.026 241.181 481.015 238.92H490.958C490.97 239.619 491.183 240.246 491.597 240.803C492.023 241.347 492.603 241.773 493.337 242.081C494.071 242.389 494.911 242.543 495.858 242.543C496.77 242.543 497.575 242.383 498.273 242.063C498.971 241.732 499.516 241.276 499.907 240.696C500.297 240.116 500.487 239.453 500.475 238.707C500.487 237.973 500.262 237.322 499.8 236.754C499.35 236.186 498.717 235.742 497.9 235.423C497.083 235.103 496.142 234.943 495.077 234.943H491.384V228.125H495.077C496.06 228.125 496.924 227.965 497.669 227.646C498.427 227.326 499.013 226.882 499.427 226.314C499.853 225.746 500.06 225.095 500.049 224.361C500.06 223.651 499.889 223.023 499.534 222.479C499.179 221.934 498.681 221.508 498.042 221.2C497.415 220.893 496.687 220.739 495.858 220.739C494.959 220.739 494.154 220.898 493.444 221.218C492.745 221.538 492.195 221.982 491.792 222.55C491.39 223.118 491.183 223.769 491.171 224.503H481.725C481.737 222.277 482.346 220.312 483.554 218.608C484.773 216.903 486.442 215.566 488.561 214.595C490.68 213.625 493.112 213.139 495.858 213.139C498.545 213.139 500.919 213.595 502.978 214.506C505.05 215.418 506.666 216.673 507.826 218.271C508.998 219.857 509.578 221.674 509.566 223.722C509.589 225.758 508.891 227.427 507.471 228.729C506.062 230.031 504.275 230.8 502.108 231.037V231.321C505.044 231.641 507.252 232.54 508.731 234.02C510.211 235.488 510.939 237.334 510.915 239.56C510.927 241.69 510.288 243.578 508.998 245.224C507.719 246.869 505.938 248.159 503.653 249.094C501.38 250.03 498.758 250.497 495.787 250.497ZM525.213 250V213.636H540.909C543.608 213.636 545.969 214.169 547.993 215.234C550.018 216.3 551.592 217.797 552.716 219.727C553.841 221.656 554.403 223.911 554.403 226.491C554.403 229.096 553.823 231.351 552.663 233.256C551.515 235.162 549.899 236.63 547.816 237.66C545.744 238.69 543.324 239.205 540.554 239.205H531.179V231.534H538.565C539.725 231.534 540.714 231.333 541.53 230.93C542.359 230.516 542.992 229.93 543.43 229.173C543.88 228.415 544.105 227.521 544.105 226.491C544.105 225.45 543.88 224.562 543.43 223.828C542.992 223.082 542.359 222.514 541.53 222.124C540.714 221.721 539.725 221.52 538.565 221.52H535.085V250H525.213ZM558.025 250V213.636H573.721C576.42 213.636 578.782 214.128 580.806 215.11C582.83 216.093 584.404 217.507 585.529 219.354C586.653 221.2 587.216 223.414 587.216 225.994C587.216 228.598 586.636 230.794 585.476 232.582C584.327 234.369 582.712 235.719 580.628 236.63C578.557 237.541 576.136 237.997 573.366 237.997H563.991V230.327H571.378C572.538 230.327 573.526 230.185 574.343 229.901C575.171 229.605 575.805 229.137 576.243 228.498C576.693 227.859 576.917 227.024 576.917 225.994C576.917 224.953 576.693 224.106 576.243 223.455C575.805 222.792 575.171 222.307 574.343 221.999C573.526 221.68 572.538 221.52 571.378 221.52H567.898V250H558.025ZM579.332 233.31L588.423 250H577.699L568.821 233.31H579.332ZM626.651 231.818C626.651 235.866 625.864 239.281 624.29 242.063C622.715 244.833 620.59 246.934 617.915 248.366C615.24 249.787 612.257 250.497 608.966 250.497C605.652 250.497 602.657 249.781 599.982 248.349C597.319 246.905 595.2 244.798 593.626 242.028C592.063 239.246 591.282 235.843 591.282 231.818C591.282 227.77 592.063 224.361 593.626 221.591C595.2 218.809 597.319 216.708 599.982 215.288C602.657 213.855 605.652 213.139 608.966 213.139C612.257 213.139 615.24 213.855 617.915 215.288C620.59 216.708 622.715 218.809 624.29 221.591C625.864 224.361 626.651 227.77 626.651 231.818ZM616.495 231.818C616.495 229.64 616.205 227.805 615.625 226.314C615.057 224.811 614.21 223.674 613.086 222.905C611.973 222.124 610.6 221.733 608.966 221.733C607.333 221.733 605.954 222.124 604.829 222.905C603.717 223.674 602.87 224.811 602.29 226.314C601.722 227.805 601.438 229.64 601.438 231.818C601.438 233.996 601.722 235.837 602.29 237.34C602.87 238.832 603.717 239.968 604.829 240.749C605.954 241.519 607.333 241.903 608.966 241.903C610.6 241.903 611.973 241.519 613.086 240.749C614.21 239.968 615.057 238.832 615.625 237.34C616.205 235.837 616.495 233.996 616.495 231.818ZM266.69 310.568C264.133 310.568 261.932 309.964 260.085 308.757C258.238 307.55 256.818 305.887 255.824 303.768C254.829 301.649 254.332 299.228 254.332 296.506C254.332 293.736 254.841 291.291 255.859 289.173C256.889 287.042 258.321 285.379 260.156 284.183C262.003 282.976 264.157 282.372 266.619 282.372C268.537 282.372 270.265 282.727 271.804 283.438C273.343 284.148 274.603 285.142 275.586 286.42C276.568 287.699 277.178 289.19 277.415 290.895H273.224C272.905 289.652 272.194 288.551 271.094 287.592C270.005 286.622 268.537 286.136 266.69 286.136C265.057 286.136 263.624 286.562 262.393 287.415C261.174 288.255 260.221 289.445 259.535 290.984C258.86 292.511 258.523 294.304 258.523 296.364C258.523 298.471 258.854 300.305 259.517 301.868C260.192 303.43 261.139 304.644 262.358 305.508C263.589 306.372 265.033 306.804 266.69 306.804C267.779 306.804 268.768 306.615 269.655 306.236C270.543 305.857 271.295 305.312 271.91 304.602C272.526 303.892 272.964 303.04 273.224 302.045H277.415C277.178 303.655 276.592 305.105 275.657 306.396C274.733 307.674 273.508 308.692 271.981 309.45C270.466 310.195 268.702 310.568 266.69 310.568ZM294.62 310.568C292.158 310.568 289.997 309.982 288.139 308.81C286.292 307.638 284.848 305.999 283.807 303.892C282.777 301.785 282.262 299.323 282.262 296.506C282.262 293.665 282.777 291.185 283.807 289.066C284.848 286.947 286.292 285.302 288.139 284.13C289.997 282.958 292.158 282.372 294.62 282.372C297.082 282.372 299.236 282.958 301.083 284.13C302.941 285.302 304.385 286.947 305.415 289.066C306.457 291.185 306.978 293.665 306.978 296.506C306.978 299.323 306.457 301.785 305.415 303.892C304.385 305.999 302.941 307.638 301.083 308.81C299.236 309.982 297.082 310.568 294.62 310.568ZM294.62 306.804C296.49 306.804 298.029 306.325 299.236 305.366C300.444 304.407 301.337 303.146 301.917 301.584C302.497 300.021 302.787 298.329 302.787 296.506C302.787 294.683 302.497 292.984 301.917 291.41C301.337 289.835 300.444 288.563 299.236 287.592C298.029 286.622 296.49 286.136 294.62 286.136C292.75 286.136 291.211 286.622 290.003 287.592C288.796 288.563 287.902 289.835 287.322 291.41C286.742 292.984 286.452 294.683 286.452 296.506C286.452 298.329 286.742 300.021 287.322 301.584C287.902 303.146 288.796 304.407 290.003 305.366C291.211 306.325 292.75 306.804 294.62 306.804ZM338.516 310.568C335.96 310.568 333.758 309.964 331.911 308.757C330.065 307.55 328.644 305.887 327.65 303.768C326.656 301.649 326.158 299.228 326.158 296.506C326.158 293.736 326.667 291.291 327.685 289.173C328.715 287.042 330.147 285.379 331.982 284.183C333.829 282.976 335.983 282.372 338.445 282.372C340.363 282.372 342.091 282.727 343.63 283.438C345.169 284.148 346.429 285.142 347.412 286.42C348.394 287.699 349.004 289.19 349.241 290.895H345.05C344.731 289.652 344.021 288.551 342.92 287.592C341.831 286.622 340.363 286.136 338.516 286.136C336.883 286.136 335.451 286.562 334.219 287.415C333 288.255 332.047 289.445 331.361 290.984C330.686 292.511 330.349 294.304 330.349 296.364C330.349 298.471 330.68 300.305 331.343 301.868C332.018 303.43 332.965 304.644 334.184 305.508C335.415 306.372 336.859 306.804 338.516 306.804C339.605 306.804 340.594 306.615 341.482 306.236C342.369 305.857 343.121 305.312 343.737 304.602C344.352 303.892 344.79 303.04 345.05 302.045H349.241C349.004 303.655 348.418 305.105 347.483 306.396C346.56 307.674 345.335 308.692 343.808 309.45C342.292 310.195 340.529 310.568 338.516 310.568ZM355.366 310V282.727H359.557V294.588H362.327L372.128 282.727H377.526L366.517 295.866L377.668 310H372.27L363.321 298.494H359.557V310H355.366ZM386.412 303.821L399.551 282.727H404.381V310H400.191V288.906L387.123 310H382.222V282.727H386.412V303.821ZM409.144 317.812V306.094H411.417C411.973 305.514 412.452 304.886 412.855 304.212C413.257 303.537 413.607 302.738 413.903 301.815C414.21 300.879 414.471 299.743 414.684 298.406C414.897 297.056 415.086 295.429 415.252 293.523L416.175 282.727H433.505V306.094H437.695V317.812H433.505V310H413.334V317.812H409.144ZM416.175 306.094H429.314V286.634H420.081L419.371 293.523C419.075 296.375 418.708 298.867 418.27 300.998C417.832 303.129 417.134 304.827 416.175 306.094ZM443.257 310V282.727H447.447V294.588H450.217L460.018 282.727H465.416L454.408 295.866L465.558 310H460.161L451.212 298.494H447.447V310H443.257ZM480.069 310.568C477.607 310.568 475.447 309.982 473.588 308.81C471.742 307.638 470.298 305.999 469.256 303.892C468.226 301.785 467.711 299.323 467.711 296.506C467.711 293.665 468.226 291.185 469.256 289.066C470.298 286.947 471.742 285.302 473.588 284.13C475.447 282.958 477.607 282.372 480.069 282.372C482.531 282.372 484.686 282.958 486.532 284.13C488.391 285.302 489.835 286.947 490.865 289.066C491.906 291.185 492.427 293.665 492.427 296.506C492.427 299.323 491.906 301.785 490.865 303.892C489.835 305.999 488.391 307.638 486.532 308.81C484.686 309.982 482.531 310.568 480.069 310.568ZM480.069 306.804C481.939 306.804 483.478 306.325 484.686 305.366C485.893 304.407 486.787 303.146 487.367 301.584C487.947 300.021 488.237 298.329 488.237 296.506C488.237 294.683 487.947 292.984 487.367 291.41C486.787 289.835 485.893 288.563 484.686 287.592C483.478 286.622 481.939 286.136 480.069 286.136C478.199 286.136 476.66 286.622 475.453 287.592C474.245 288.563 473.352 289.835 472.771 291.41C472.191 292.984 471.901 294.683 471.901 296.506C471.901 298.329 472.191 300.021 472.771 301.584C473.352 303.146 474.245 304.407 475.453 305.366C476.66 306.325 478.199 306.804 480.069 306.804ZM503.014 303.821L516.153 282.727H520.983V310H516.792V288.906L503.724 310H498.824V282.727H503.014V303.821ZM513.383 273.636H517.289C517.289 275.554 516.627 277.122 515.301 278.342C513.975 279.561 512.176 280.17 509.903 280.17C507.666 280.17 505.884 279.561 504.559 278.342C503.245 277.122 502.588 275.554 502.588 273.636H506.494C506.494 274.56 506.748 275.371 507.257 276.069C507.778 276.767 508.66 277.116 509.903 277.116C511.146 277.116 512.034 276.767 512.566 276.069C513.111 275.371 513.383 274.56 513.383 273.636ZM539.808 317.812V306.094H542.081C542.637 305.514 543.117 304.886 543.519 304.212C543.921 303.537 544.271 302.738 544.567 301.815C544.874 300.879 545.135 299.743 545.348 298.406C545.561 297.056 545.75 295.429 545.916 293.523L546.839 282.727H564.169V306.094H568.359V317.812H564.169V310H543.998V317.812H539.808ZM546.839 306.094H559.979V286.634H550.746L550.035 293.523C549.739 296.375 549.372 298.867 548.934 300.998C548.497 303.129 547.798 304.827 546.839 306.094ZM585.001 310.568C582.539 310.568 580.378 309.982 578.52 308.81C576.673 307.638 575.229 305.999 574.188 303.892C573.158 301.785 572.643 299.323 572.643 296.506C572.643 293.665 573.158 291.185 574.188 289.066C575.229 286.947 576.673 285.302 578.52 284.13C580.378 282.958 582.539 282.372 585.001 282.372C587.463 282.372 589.617 282.958 591.464 284.13C593.322 285.302 594.766 286.947 595.796 289.066C596.838 291.185 597.359 293.665 597.359 296.506C597.359 299.323 596.838 301.785 595.796 303.892C594.766 305.999 593.322 307.638 591.464 308.81C589.617 309.982 587.463 310.568 585.001 310.568ZM585.001 306.804C586.871 306.804 588.41 306.325 589.617 305.366C590.825 304.407 591.718 303.146 592.298 301.584C592.878 300.021 593.168 298.329 593.168 296.506C593.168 294.683 592.878 292.984 592.298 291.41C591.718 289.835 590.825 288.563 589.617 287.592C588.41 286.622 586.871 286.136 585.001 286.136C583.13 286.136 581.592 286.622 580.384 287.592C579.177 288.563 578.283 289.835 577.703 291.41C577.123 292.984 576.833 294.683 576.833 296.506C576.833 298.329 577.123 300.021 577.703 301.584C578.283 303.146 579.177 304.407 580.384 305.366C581.592 306.325 583.13 306.804 585.001 306.804ZM617.747 310V306.804L629.749 293.665C631.158 292.126 632.318 290.788 633.23 289.652C634.141 288.504 634.816 287.427 635.254 286.42C635.704 285.402 635.928 284.337 635.928 283.224C635.928 281.946 635.621 280.839 635.005 279.904C634.401 278.969 633.573 278.247 632.519 277.738C631.466 277.229 630.282 276.974 628.968 276.974C627.571 276.974 626.352 277.264 625.311 277.844C624.281 278.413 623.482 279.212 622.914 280.241C622.357 281.271 622.079 282.479 622.079 283.864H617.889C617.889 281.733 618.38 279.863 619.362 278.253C620.345 276.643 621.682 275.388 623.375 274.489C625.08 273.589 626.991 273.139 629.11 273.139C631.241 273.139 633.129 273.589 634.774 274.489C636.42 275.388 637.71 276.602 638.645 278.129C639.58 279.656 640.048 281.354 640.048 283.224C640.048 284.562 639.805 285.87 639.32 287.148C638.846 288.415 638.018 289.83 636.834 291.392C635.662 292.943 634.035 294.837 631.951 297.074L623.784 305.81V306.094H640.687V310H617.747ZM659.881 310.497C657.206 310.497 654.927 309.769 653.045 308.313C651.163 306.845 649.725 304.721 648.73 301.939C647.736 299.145 647.239 295.772 647.239 291.818C647.239 287.888 647.736 284.532 648.73 281.751C649.736 278.957 651.181 276.826 653.063 275.359C654.957 273.879 657.229 273.139 659.881 273.139C662.532 273.139 664.799 273.879 666.681 275.359C668.575 276.826 670.019 278.957 671.014 281.751C672.02 284.532 672.523 287.888 672.523 291.818C672.523 295.772 672.026 299.145 671.031 301.939C670.037 304.721 668.599 306.845 666.717 308.313C664.835 309.769 662.556 310.497 659.881 310.497ZM659.881 306.591C662.532 306.591 664.592 305.312 666.06 302.756C667.528 300.199 668.262 296.553 668.262 291.818C668.262 288.67 667.924 285.988 667.249 283.775C666.587 281.561 665.628 279.875 664.373 278.714C663.13 277.554 661.633 276.974 659.881 276.974C657.253 276.974 655.199 278.271 653.72 280.863C652.24 283.443 651.5 287.095 651.5 291.818C651.5 294.967 651.832 297.642 652.494 299.844C653.157 302.045 654.11 303.72 655.353 304.869C656.608 306.017 658.117 306.591 659.881 306.591ZM697.807 303.182V301.264C697.807 299.938 698.079 298.725 698.624 297.624C699.18 296.512 699.985 295.624 701.039 294.961C702.104 294.286 703.394 293.949 704.909 293.949C706.448 293.949 707.738 294.286 708.78 294.961C709.822 295.624 710.609 296.512 711.142 297.624C711.674 298.725 711.941 299.938 711.941 301.264V303.182C711.941 304.508 711.668 305.727 711.124 306.839C710.591 307.94 709.798 308.828 708.744 309.503C707.703 310.166 706.424 310.497 704.909 310.497C703.37 310.497 702.074 310.166 701.021 309.503C699.967 308.828 699.168 307.94 698.624 306.839C698.079 305.727 697.807 304.508 697.807 303.182ZM701.429 301.264V303.182C701.429 304.283 701.69 305.271 702.21 306.147C702.731 307.011 703.631 307.443 704.909 307.443C706.152 307.443 707.028 307.011 707.537 306.147C708.058 305.271 708.318 304.283 708.318 303.182V301.264C708.318 300.163 708.07 299.181 707.573 298.317C707.075 297.441 706.188 297.003 704.909 297.003C703.666 297.003 702.773 297.441 702.228 298.317C701.695 299.181 701.429 300.163 701.429 301.264ZM679.696 282.372V280.455C679.696 279.129 679.968 277.915 680.513 276.815C681.069 275.702 681.874 274.814 682.928 274.151C683.993 273.477 685.283 273.139 686.798 273.139C688.337 273.139 689.628 273.477 690.669 274.151C691.711 274.814 692.498 275.702 693.031 276.815C693.563 277.915 693.83 279.129 693.83 280.455V282.372C693.83 283.698 693.557 284.917 693.013 286.03C692.48 287.131 691.687 288.018 690.634 288.693C689.592 289.356 688.314 289.688 686.798 289.688C685.26 289.688 683.963 289.356 682.91 288.693C681.856 288.018 681.057 287.131 680.513 286.03C679.968 284.917 679.696 283.698 679.696 282.372ZM683.318 280.455V282.372C683.318 283.473 683.579 284.461 684.1 285.337C684.62 286.201 685.52 286.634 686.798 286.634C688.041 286.634 688.917 286.201 689.426 285.337C689.947 284.461 690.208 283.473 690.208 282.372V280.455C690.208 279.354 689.959 278.371 689.462 277.507C688.965 276.631 688.077 276.193 686.798 276.193C685.556 276.193 684.662 276.631 684.117 277.507C683.585 278.371 683.318 279.354 683.318 280.455ZM681.046 310L706.046 273.636H710.094L685.094 310H681.046Z" fill="#1A1A25"/>
<defs>
<linearGradient id="paint0_linear_3_26436" x1="960" y1="0" x2="960" y2="500" gradientUnits="userSpaceOnUse">
<stop stop-color="#DEDFE7"/>
<stop offset="1" stop-color="#E9EAEF" stop-opacity="0"/>
</linearGradient>
</defs>
</svg>
